<svg width="24" height="24" viewBox="0 0 24 24" fill="none" xmlns="http://www.w3.org/2000/svg">
<g clip-path="url(#clip0_102_67)">
<path d="M12 16.5187C13.933 16.5187 15.5 14.9517 15.5 13.0187C15.5 11.0857 13.933 9.51874 12 9.51874C10.067 9.51874 8.5 11.0857 8.5 13.0187C8.5 14.9517 10.067 16.5187 12 16.5187Z" fill="#4285F4"/>
<path d="M20 9V14.0188V17C20 17.2113 19.9575 17.4113 19.8975 17.6025C19.7012 18.2175 19.2188 18.7 18.6038 18.8962C18.4125 18.9575 18.2125 18.9988 18.0012 18.9988H8.25L10.25 20.9988H16.5H18C18.5525 20.9988 19.0788 20.8862 19.5575 20.685C20.0363 20.4825 20.4675 20.19 20.8288 19.8275C21.01 19.6462 21.1737 19.4488 21.3175 19.235C21.605 18.81 21.8125 18.325 21.9188 17.805C21.9725 17.545 22 17.275 22 16.9988V15.4987V12.0188V10.5L21.25 8.125L19.8975 8.3975C19.9575 8.58875 20 8.78875 20 9Z" fill="#EA4335"/>
<path d="M4 9C4 8.78875 4.0425 8.58875 4.1025 8.3975C4.29875 7.7825 4.78125 7.3 5.39625 7.10375C5.58875 7.0425 5.78875 7 6 7H18C18.2113 7 18.4113 7.0425 18.6025 7.1025L18.625 5.625L16.5 5L14.5 3H12.82H12H11.18H9.5L7.5 5H6C3.79125 5 2 6.79125 2 9V10.5V13L4 15V9Z" fill="#4285F4"/>
<path d="M18 5H16.5L18.6038 7.10375C18.7575 7.1525 18.9025 7.22 19.0375 7.3025C19.3075 7.4675 19.5337 7.69375 19.6987 7.96375C19.7812 8.09875 19.8487 8.24375 19.8975 8.3975L22 10.5V9C22 6.79125 20.2088 5 18 5Z" fill="#34A853"/>
<path d="M6 21H10.9862L8.98625 19H6C4.8975 19 4 18.1025 4 17V14.0137L2 12.0137V17C2 19.2087 3.79125 21 6 21Z" fill="#FBBC04"/>
</g>
<defs>
<clipPath id="clip0_102_67">
<rect width="24" height="24" fill="white"/>
</clipPath>
</defs>
</svg>
