<svg width="41" height="36" viewBox="0 0 41 36" fill="none" xmlns="http://www.w3.org/2000/svg">
<path d="M3.02919 30.682L4.7962 33.7342C5.1634 34.3767 5.69119 34.8816 6.31081 35.2487L12.6216 24.3253H0C0 25.0367 0.183587 25.7481 0.550761 26.3907L3.02919 30.682Z" fill="#0066DA"/>
<path d="M20.0339 11.4742L13.7231 0.550781C13.1035 0.917955 12.5757 1.42282 12.2086 2.06538L0.550761 22.26C0.19034 22.8887 0.000479882 23.6006 0 24.3253H12.6216L20.0339 11.4742Z" fill="#00AC47"/>
<path d="M33.7571 35.2487C34.3766 34.8816 34.9045 34.3767 35.2716 33.7342L36.006 32.472L39.5172 26.3907C39.8842 25.7481 40.0678 25.0367 40.0678 24.3253H27.4453L30.1312 29.6035L33.7571 35.2487Z" fill="#EA4335"/>
<path d="M20.034 11.4742L26.3448 0.550761C25.7252 0.183587 25.0138 0 24.2794 0H15.7885C15.0542 0 14.3428 0.206536 13.7231 0.550761L20.034 11.4742Z" fill="#00832D"/>
<path d="M27.4463 24.3253H12.6216L6.31079 35.2487C6.93041 35.6159 7.64182 35.7995 8.37614 35.7995H31.6917C32.4261 35.7995 33.1375 35.593 33.7571 35.2487L27.4463 24.3253Z" fill="#2684FC"/>
<path d="M33.6883 12.1627L27.8594 2.06538C27.4922 1.42282 26.9644 0.917955 26.3447 0.550781L20.0339 11.4742L27.4463 24.3253H40.045C40.045 23.6139 39.8613 22.9025 39.4944 22.26L33.6883 12.1627Z" fill="#FFBA00"/>
</svg>
