<svg width="41" height="31" viewBox="0 0 41 31" fill="none" xmlns="http://www.w3.org/2000/svg">
<path d="M2.73191 30.0587H9.10635V14.5779L0 7.74817V27.3268C0 28.8385 1.22481 30.0587 2.73191 30.0587Z" fill="#4285F4"/>
<path d="M30.9614 30.0587H37.3358C38.8477 30.0587 40.0678 28.8339 40.0678 27.3268V7.74817L30.9614 14.5779" fill="#34A853"/>
<path d="M30.9614 2.73966V14.5779L40.0678 7.74816V4.10562C40.0678 0.727152 36.2113 -1.19884 33.5113 0.827321" fill="#FBBC04"/>
<path d="M9.10645 14.5779V2.73962L20.0341 10.9353L30.9616 2.73962V14.5779L20.0341 22.7736" fill="#EA4335"/>
<path d="M0 4.10562V7.74816L9.10635 14.5779V2.73966L6.55658 0.827321C3.85199 -1.19884 0 0.727152 0 4.10562Z" fill="#C5221F"/>
</svg>
