<svg width="30" height="32" viewBox="0 0 30 32" fill="none" xmlns="http://www.w3.org/2000/svg">
<g clip-path="url(#clip0_34_262)">
<path d="M30 16.1117C30 15.0411 29.9157 13.9647 29.7357 12.9114H15.3008V18.9764H23.567C23.224 20.9325 22.1218 22.6629 20.508 23.7625V27.6978H25.4395C28.3355 24.9546 30 20.9036 30 16.1117Z" fill="#4285F4"/>
<path d="M15.3008 31.5C19.4283 31.5 22.9091 30.1053 25.4452 27.6978L20.5136 23.7625C19.1415 24.7231 17.3702 25.2671 15.3065 25.2671C11.314 25.2671 7.92877 22.4951 6.71415 18.7681H1.62511V22.8249C4.22305 28.1434 9.51452 31.5 15.3008 31.5V31.5Z" fill="#34A853"/>
<path d="M6.70853 18.768C6.06748 16.8119 6.06748 14.6938 6.70853 12.7377V8.68085H1.62512C-0.545451 13.1312 -0.545451 18.3745 1.62512 22.8249L6.70853 18.768V18.768Z" fill="#FBBC04"/>
<path d="M15.3008 6.23289C17.4827 6.19817 19.5914 7.04311 21.1715 8.59409L25.5408 4.0974C22.7741 1.42369 19.1022 -0.0462742 15.3008 2.37765e-05C9.51452 2.37765e-05 4.22305 3.35663 1.62511 8.6809L6.70853 12.7378C7.91752 9.00499 11.3083 6.23289 15.3008 6.23289V6.23289Z" fill="#EA4335"/>
</g>
<defs>
<clipPath id="clip0_34_262">
<rect width="30" height="31.5" fill="white"/>
</clipPath>
</defs>
</svg>
