<svg width="266" height="85" viewBox="0 0 266 85" fill="none" xmlns="http://www.w3.org/2000/svg">
<path d="M85.7755 21.8878C73.9156 21.8878 64 30.9915 64 43.3881C64 55.7847 73.7212 64.8885 85.7755 64.8885C97.8299 64.8885 107.551 55.9784 107.551 43.5818C107.551 30.9915 97.8299 21.8878 85.7755 21.8878ZM85.7755 56.5595C79.1651 56.5595 73.5268 51.136 73.5268 43.5818C73.5268 35.8339 79.1651 30.6041 85.7755 30.6041C92.386 30.6041 98.0243 35.8339 98.0243 43.5818C98.0243 51.136 92.386 56.5595 85.7755 56.5595Z" fill="#EA4335"/>
<path d="M192.126 26.7302H191.737C189.598 24.2121 185.515 21.8878 180.266 21.8878C169.378 21.8878 160.046 31.1852 160.046 43.3881C160.046 55.3973 169.378 64.8885 180.266 64.8885C185.515 64.8885 189.598 62.5641 191.737 60.0461H192.126V63.1452C192.126 71.2805 187.654 75.7355 180.655 75.7355C174.822 75.7355 171.322 71.6679 169.767 67.9876L161.601 71.4742C163.934 77.0914 170.35 84.2582 180.849 84.2582C191.931 84.2582 201.458 77.6725 201.458 61.7893V23.0499H192.515V26.7302H192.126ZM181.238 56.5595C174.628 56.5595 169.767 50.9423 169.767 43.5818C169.767 36.0276 174.822 30.6041 181.238 30.6041C187.654 30.6041 192.709 36.2213 192.709 43.7755C192.903 51.136 187.848 56.5595 181.238 56.5595Z" fill="#4285F4"/>
<path d="M134.187 21.8878C122.327 21.8878 112.412 30.9915 112.412 43.3881C112.412 55.7847 122.133 64.8885 134.187 64.8885C146.242 64.8885 155.963 55.9784 155.963 43.5818C155.963 30.9915 146.242 21.8878 134.187 21.8878ZM134.187 56.5595C127.577 56.5595 121.939 51.136 121.939 43.5818C121.939 35.8339 127.577 30.6041 134.187 30.6041C140.798 30.6041 146.436 35.8339 146.436 43.5818C146.436 51.136 140.798 56.5595 134.187 56.5595Z" fill="#FBBC05"/>
<path d="M208.652 0H217.984V65.0822H208.652V0Z" fill="#34A853"/>
<path d="M246.759 56.5595C241.899 56.5595 238.593 54.4288 236.26 49.9738L265.229 38.1583L264.257 35.6402C262.508 30.7978 256.869 21.8878 245.787 21.8878C234.705 21.8878 225.372 30.6041 225.372 43.3881C225.372 55.3973 234.51 64.8885 246.759 64.8885C256.675 64.8885 262.313 58.8839 264.841 55.3973L257.452 50.5549C254.925 54.2351 251.62 56.5595 246.759 56.5595ZM246.176 30.023C250.064 30.023 253.37 31.96 254.342 34.6718L234.899 42.807C234.705 33.897 241.315 30.023 246.176 30.023Z" fill="#EA4335"/>
<g clip-path="url(#clip0_14_15)">
<path d="M60 42.4562C60 40.3659 59.8313 38.2643 59.4714 36.2079H30.6017V48.0491H47.134C46.448 51.8682 44.2437 55.2466 41.0159 57.3934V65.0766H50.8791C56.671 59.7209 60 51.8117 60 42.4562Z" fill="#4285F4"/>
<path d="M30.6017 72.5C38.8566 72.5 45.8182 69.777 50.8904 65.0766L41.0272 57.3934C38.283 59.269 34.7404 60.3311 30.6129 60.3311C22.6279 60.3311 15.8576 54.9189 13.4283 47.6424H3.25024V55.5629C8.44612 65.9466 19.0291 72.5 30.6017 72.5Z" fill="#34A853"/>
<path d="M13.4171 47.6424C12.135 43.8233 12.135 39.6879 13.4171 35.8689V27.9484H3.25024C-1.0909 36.6372 -1.0909 46.8741 3.25024 55.5629L13.4171 47.6424Z" fill="#FBBC04"/>
<path d="M30.6017 23.1689C34.9653 23.1011 39.1828 24.7508 42.343 27.7789L51.0816 18.9996C45.5483 13.7795 38.2043 10.9096 30.6017 11C19.0291 11 8.44612 17.5534 3.25024 27.9484L13.4171 35.8689C15.8351 28.5811 22.6167 23.1689 30.6017 23.1689Z" fill="#EA4335"/>
</g>
<defs>
<clipPath id="clip0_14_15">
<rect width="60" height="61.5" fill="white" transform="translate(0 11)"/>
</clipPath>
</defs>
</svg>
