<svg width="30" height="30" viewBox="0 0 30 30" fill="none" xmlns="http://www.w3.org/2000/svg">
<path opacity="0.6" d="M18.9246 17.5036C20.9084 17.5036 22.5143 15.8977 22.5143 13.914C22.5143 11.9302 20.9084 10.3243 18.9246 10.3243C18.9123 10.3243 18.9 10.3243 18.8877 10.3243C18.5714 7.46985 16.1441 5.24377 13.1952 5.24377C10.8664 5.24377 8.86625 6.63199 7.97089 8.62395C7.94214 8.62395 7.91339 8.61985 7.88464 8.61985C5.43268 8.61985 3.44482 10.6077 3.44482 13.0597C3.44482 15.5116 5.43268 17.4995 7.88464 17.4995" fill="#57AAFF"/>
<path fill-rule="evenodd" clip-rule="evenodd" d="M18.8468 10.027C18.543 8.18058 17.3509 6.62995 15.722 5.82905C16.4031 4.30764 17.9303 3.24768 19.705 3.24768C22.114 3.24768 24.0668 5.20052 24.0668 7.60947C24.0668 8.88887 23.516 10.0396 22.6385 10.8375C21.989 10.195 21.0963 9.79854 20.1116 9.79854C19.6663 9.79854 19.2401 9.87929 18.8468 10.027Z" fill="#FDCA4F"/>
<path opacity="0.6" fill-rule="evenodd" clip-rule="evenodd" d="M19.0668 17.5008C20.9846 17.4263 22.5144 15.8501 22.5144 13.9139C22.5144 11.9302 20.9085 10.3243 18.9247 10.3243H18.8878C18.8767 10.2244 18.863 10.1253 18.8469 10.027C19.2402 9.87932 19.6664 9.79858 20.1116 9.79858C21.9598 9.79858 23.4836 11.195 23.6848 12.9939H23.7095C24.9539 12.9939 25.9643 14.0043 25.9643 15.2488C25.9643 16.4932 24.9539 17.5036 23.7095 17.5036L19.0668 17.5008Z" fill="#5686DF"/>
<path d="M9.21129 20.2677C9.58329 20.2677 9.88486 19.9661 9.88486 19.5941C9.88486 19.2221 9.58329 18.9205 9.21129 18.9205C8.83929 18.9205 8.53772 19.2221 8.53772 19.5941C8.53772 19.9661 8.83929 20.2677 9.21129 20.2677Z" fill="#4285F4"/>
<path d="M12.575 20.2677C12.947 20.2677 13.2486 19.9661 13.2486 19.5941C13.2486 19.2221 12.947 18.9205 12.575 18.9205C12.203 18.9205 11.9014 19.2221 11.9014 19.5941C11.9014 19.9661 12.203 20.2677 12.575 20.2677Z" fill="#4285F4"/>
<path d="M15.9429 20.2677C16.3149 20.2677 16.6164 19.9661 16.6164 19.5941C16.6164 19.2221 16.3149 18.9205 15.9429 18.9205C15.5709 18.9205 15.2693 19.2221 15.2693 19.5941C15.2693 19.9661 15.5709 20.2677 15.9429 20.2677Z" fill="#4285F4"/>
<path d="M19.3068 20.2677C19.6788 20.2677 19.9803 19.9661 19.9803 19.5941C19.9803 19.2221 19.6788 18.9205 19.3068 18.9205C18.9347 18.9205 18.6332 19.2221 18.6332 19.5941C18.6332 19.9661 18.9347 20.2677 19.3068 20.2677Z" fill="#4285F4"/>
<path d="M15.6737 4.56138C16.0457 4.56138 16.3473 4.25981 16.3473 3.88781C16.3473 3.5158 16.0457 3.21423 15.6737 3.21423C15.3017 3.21423 15.0001 3.5158 15.0001 3.88781C15.0001 4.25981 15.3017 4.56138 15.6737 4.56138Z" fill="#FDCA4F"/>
<path d="M9.21129 25.7466C9.58329 25.7466 9.88486 25.445 9.88486 25.073C9.88486 24.701 9.58329 24.3994 9.21129 24.3994C8.83929 24.3994 8.53772 24.701 8.53772 25.073C8.53772 25.445 8.83929 25.7466 9.21129 25.7466Z" fill="#4285F4"/>
<path d="M12.575 25.7466C12.947 25.7466 13.2486 25.445 13.2486 25.073C13.2486 24.701 12.947 24.3994 12.575 24.3994C12.203 24.3994 11.9014 24.701 11.9014 25.073C11.9014 25.445 12.203 25.7466 12.575 25.7466Z" fill="#4285F4"/>
<path d="M15.9429 25.7466C16.3149 25.7466 16.6164 25.445 16.6164 25.073C16.6164 24.701 16.3149 24.3994 15.9429 24.3994C15.5709 24.3994 15.2693 24.701 15.2693 25.073C15.2693 25.445 15.5709 25.7466 15.9429 25.7466Z" fill="#4285F4"/>
<path d="M19.3066 25.7466C19.6786 25.7466 19.9802 25.445 19.9802 25.073C19.9802 24.701 19.6786 24.3994 19.3066 24.3994C18.9346 24.3994 18.6331 24.701 18.6331 25.073C18.6331 25.445 18.9346 25.7466 19.3066 25.7466Z" fill="#4285F4"/>
<path d="M7.52733 23.0564C7.89933 23.0564 8.2009 22.7548 8.2009 22.3828C8.2009 22.0108 7.89933 21.7092 7.52733 21.7092C7.15533 21.7092 6.85376 22.0108 6.85376 22.3828C6.85376 22.7548 7.15533 23.0564 7.52733 23.0564Z" fill="#4285F4"/>
<path d="M10.8952 23.0564C11.2672 23.0564 11.5688 22.7548 11.5688 22.3828C11.5688 22.0108 11.2672 21.7092 10.8952 21.7092C10.5232 21.7092 10.2216 22.0108 10.2216 22.3828C10.2216 22.7548 10.5232 23.0564 10.8952 23.0564Z" fill="#4285F4"/>
<path d="M14.259 23.0564C14.631 23.0564 14.9326 22.7548 14.9326 22.3828C14.9326 22.0108 14.631 21.7092 14.259 21.7092C13.887 21.7092 13.5854 22.0108 13.5854 22.3828C13.5854 22.7548 13.887 23.0564 14.259 23.0564Z" fill="#4285F4"/>
<path d="M17.6226 23.0564C17.9946 23.0564 18.2962 22.7548 18.2962 22.3828C18.2962 22.0108 17.9946 21.7092 17.6226 21.7092C17.2506 21.7092 16.949 22.0108 16.949 22.3828C16.949 22.7548 17.2506 23.0564 17.6226 23.0564Z" fill="#4285F4"/>
<path d="M24.245 4.56138C24.617 4.56138 24.9186 4.25981 24.9186 3.88781C24.9186 3.5158 24.617 3.21423 24.245 3.21423C23.873 3.21423 23.5714 3.5158 23.5714 3.88781C23.5714 4.25981 23.873 4.56138 24.245 4.56138Z" fill="#FDCA4F"/>
<path d="M25.3165 7.77573C25.6885 7.77573 25.99 7.47416 25.99 7.10216C25.99 6.73016 25.6885 6.42859 25.3165 6.42859C24.9445 6.42859 24.6429 6.73016 24.6429 7.10216C24.6429 7.47416 24.9445 7.77573 25.3165 7.77573Z" fill="#FDCA4F"/>
<path d="M24.245 10.99C24.617 10.99 24.9186 10.6884 24.9186 10.3164C24.9186 9.94439 24.617 9.64282 24.245 9.64282C23.873 9.64282 23.5714 9.94439 23.5714 10.3164C23.5714 10.6884 23.873 10.99 24.245 10.99Z" fill="#FDCA4F"/>
<path d="M19.9593 2.41855C20.3313 2.41855 20.6329 2.11699 20.6329 1.74498C20.6329 1.37298 20.3313 1.07141 19.9593 1.07141C19.5873 1.07141 19.2857 1.37298 19.2857 1.74498C19.2857 2.11699 19.5873 2.41855 19.9593 2.41855Z" fill="#FDCA4F"/>
</svg>
