<svg width="40" height="27" viewBox="0 0 40 27" fill="none" xmlns="http://www.w3.org/2000/svg">
<path d="M20.8862 26.9646L12.6797 26.8182C10.0227 26.7671 7.35898 26.869 4.75401 26.3403C0.791256 25.5503 0.51052 21.677 0.21676 18.428C-0.188012 13.8603 -0.0313125 9.20975 0.732544 4.68021C1.16377 2.13866 2.8608 0.622096 5.48521 0.457066C14.3445 -0.141855 23.2627 -0.0708765 32.1024 0.208542C33.0359 0.234156 33.9759 0.374159 34.8965 0.533519C39.4406 1.31077 39.5514 5.70011 39.8459 9.39512C40.1397 13.1283 40.0157 16.8806 39.4542 20.5883C39.0037 23.6581 38.1419 26.2325 34.5047 26.4811C29.9477 26.806 25.4952 27.0677 20.9252 26.9844C20.9254 26.9646 20.8992 26.9646 20.8862 26.9646ZM16.0616 19.1925C19.4957 17.2685 22.8643 15.3765 26.2789 13.4654C22.8383 11.5413 19.4761 9.64931 16.0616 7.73816V19.1925Z" fill="#FF0000"/>
</svg>
